<svg width="20" height="20" viewBox="0 0 20 20" fill="#7B7C7C" xmlns="http://www.w3.org/2000/svg"><path d="M10 14.375C8.83968 14.375 7.72688 13.9141 6.90641 13.0936C6.08594 12.2731 5.625 11.1603 5.625 10C5.625 8.83968 6.08594 7.72688 6.90641 6.90641C7.72688 6.08594 8.83968 5.625 10 5.625C11.1603 5.625 12.2731 6.08594 13.0936 6.90641C13.9141 7.72688 14.375 8.83968 14.375 10C14.375 11.1603 13.9141 12.2731 13.0936 13.0936C12.2731 13.9141 11.1603 14.375 10 14.375ZM10 1.25C10.2321 1.25 10.4546 1.34219 10.6187 1.50628C10.7828 1.67038 10.875 1.89294 10.875 2.125V3.875C10.875 4.10706 10.7828 4.32962 10.6187 4.49372C10.4546 4.65781 10.2321 4.75 10 4.75C9.76794 4.75 9.54538 4.65781 9.38128 4.49372C9.21719 4.32962 9.125 4.10706 9.125 3.875V2.125C9.125 1.89294 9.21719 1.67038 9.38128 1.50628C9.54538 1.34219 9.76794 1.25 10 1.25ZM10 15.25C10.2321 15.25 10.4546 15.3422 10.6187 15.5063C10.7828 15.6704 10.875 15.8929 10.875 16.125V17.875C10.875 18.1071 10.7828 18.3296 10.6187 18.4937C10.4546 18.6578 10.2321 18.75 10 18.75C9.76794 18.75 9.54538 18.6578 9.38128 18.4937C9.21719 18.3296 9.125 18.1071 9.125 17.875V16.125C9.125 15.8929 9.21719 15.6704 9.38128 15.5063C9.54538 15.3422 9.76794 15.25 10 15.25ZM2.125 9.125H3.875C4.10706 9.125 4.32962 9.21719 4.49372 9.38128C4.65781 9.54538 4.75 9.76794 4.75 10C4.75 10.2321 4.65781 10.4546 4.49372 10.6187C4.32962 10.7828 4.10706 10.875 3.875 10.875H2.125C1.89294 10.875 1.67038 10.7828 1.50628 10.6187C1.34219 10.4546 1.25 10.2321 1.25 10C1.25 9.76794 1.34219 9.54538 1.50628 9.38128C1.67038 9.21719 1.89294 9.125 2.125 9.125ZM16.125 9.125H17.875C18.1071 9.125 18.3296 9.21719 18.4937 9.38128C18.6578 9.54538 18.75 9.76794 18.75 10C18.75 10.2321 18.6578 10.4546 18.4937 10.6187C18.3296 10.7828 18.1071 10.875 17.875 10.875H16.125C15.8929 10.875 15.6704 10.7828 15.5063 10.6187C15.3422 10.4546 15.25 10.2321 15.25 10C15.25 9.76794 15.3422 9.54538 15.5063 9.38128C15.6704 9.21719 15.8929 9.125 16.125 9.125ZM16.1871 3.81287C16.3512 3.97696 16.4433 4.19948 16.4433 4.4315C16.4433 4.66352 16.3512 4.88604 16.1871 5.05012L14.9499 6.28737C14.8692 6.37095 14.7726 6.43761 14.6659 6.48346C14.5591 6.52932 14.4443 6.55346 14.3281 6.55447C14.2119 6.55548 14.0967 6.53334 13.9892 6.48934C13.8816 6.44535 13.7839 6.38038 13.7018 6.29822C13.6196 6.21606 13.5547 6.11837 13.5107 6.01083C13.4667 5.9033 13.4445 5.78808 13.4455 5.6719C13.4465 5.55572 13.4707 5.4409 13.5165 5.33415C13.5624 5.22739 13.6291 5.13084 13.7126 5.05012L14.9499 3.81287C15.114 3.64884 15.3365 3.55669 15.5685 3.55669C15.8005 3.55669 16.023 3.64884 16.1871 3.81287ZM6.28737 13.7126C6.45141 13.8767 6.54356 14.0992 6.54356 14.3313C6.54356 14.5633 6.45141 14.7858 6.28737 14.9499L5.05012 16.1871C4.96941 16.2707 4.87286 16.3374 4.7661 16.3832C4.65935 16.4291 4.54453 16.4532 4.42835 16.4542C4.31217 16.4552 4.19695 16.4331 4.08942 16.3891C3.98188 16.3451 3.88419 16.2801 3.80203 16.198C3.71987 16.1158 3.6549 16.0181 3.61091 15.9106C3.56691 15.8031 3.54477 15.6878 3.54578 15.5716C3.54679 15.4555 3.57093 15.3406 3.61679 15.2339C3.66264 15.1271 3.7293 15.0306 3.81287 14.9499L5.05012 13.7126C5.21421 13.5486 5.43673 13.4564 5.66875 13.4564C5.90077 13.4564 6.12329 13.5486 6.28737 13.7126ZM5.05012 3.81287L6.28737 5.05012C6.44676 5.21515 6.53496 5.43618 6.53296 5.6656C6.53097 5.89502 6.43895 6.11448 6.27672 6.27672C6.11448 6.43895 5.89502 6.53097 5.6656 6.53296C5.43618 6.53496 5.21515 6.44676 5.05012 6.28737L3.81375 5.05012C3.65436 4.8851 3.56617 4.66407 3.56816 4.43465C3.57015 4.20523 3.66218 3.98577 3.82441 3.82353C3.98664 3.6613 4.2061 3.56928 4.43552 3.56729C4.66495 3.56529 4.88597 3.65349 5.051 3.81287H5.05012ZM14.9499 13.7126L16.1871 14.9499C16.3465 15.1149 16.4347 15.3359 16.4327 15.5654C16.4307 15.7948 16.3387 16.0142 16.1765 16.1765C16.0142 16.3387 15.7948 16.4307 15.5654 16.4327C15.3359 16.4347 15.1149 16.3465 14.9499 16.1871L13.7126 14.9499C13.6291 14.8692 13.5624 14.7726 13.5165 14.6659C13.4707 14.5591 13.4465 14.4443 13.4455 14.3281C13.4445 14.2119 13.4667 14.0967 13.5107 13.9892C13.5547 13.8816 13.6196 13.7839 13.7018 13.7018C13.7839 13.6196 13.8816 13.5547 13.9892 13.5107C14.0967 13.4667 14.2119 13.4445 14.3281 13.4455C14.4443 13.4465 14.5591 13.4707 14.6659 13.5165C14.7726 13.5624 14.8692 13.6291 14.9499 13.7126Z" fill="#7B7C7C"></path></svg>
