<svg width="16" height="16" viewBox="0 0 32 32" fill="rgba(0, 0, 0, 0.7)" xmlns="http://www.w3.org/2000/svg"><path d="M24.4 10H5.2C4.88174 10 4.57652 9.87357 4.35147 9.64853C4.12643 9.42348 4 9.11826 4 8.8V5.2C4 4.88174 4.12643 4.57652 4.35147 4.35147C4.57652 4.12643 4.88174 4 5.2 4H26.8C27.1183 4 27.4235 4.12643 27.6485 4.35147C27.8736 4.57652 28 4.88174 28 5.2V8.8C28 9.11826 27.8736 9.42348 27.6485 9.64853C27.4235 9.87357 27.1183 10 26.8 10H24.4ZM25.6 12.4V26.8C25.6 27.1183 25.4736 27.4235 25.2485 27.6485C25.0235 27.8736 24.7183 28 24.4 28H7.6C7.28174 28 6.97652 27.8736 6.75147 27.6485C6.52643 27.4235 6.4 27.1183 6.4 26.8V12.4H25.6ZM13.6 20.8C13.2817 20.8 12.9765 20.9264 12.7515 21.1515C12.5264 21.3765 12.4 21.6817 12.4 22C12.4 22.3183 12.5264 22.6235 12.7515 22.8485C12.9765 23.0736 13.2817 23.2 13.6 23.2H18.4C18.7183 23.2 19.0235 23.0736 19.2485 22.8485C19.4736 22.6235 19.6 22.3183 19.6 22C19.6 21.6817 19.4736 21.3765 19.2485 21.1515C19.0235 20.9264 18.7183 20.8 18.4 20.8H13.6Z"></path></svg>
