<svg width="16" height="16" viewBox="0 0 50 50" xmlns="http://www.w3.org/2000/svg" fill="#2AA8D0"><path d="M31.7826 13C30.2216 13 28.9565 14.2651 28.9565 15.8261C28.9565 17.3871 30.2216 18.6522 31.7826 18.6522C33.3436 18.6522 34.6087 17.3871 34.6087 15.8261C34.6087 14.2651 33.3436 13 31.7826 13ZM25.8478 16.3913C25.3488 16.3913 24.8675 16.5834 24.5032 16.9234L19.7806 20.7298V20.7364C19.1557 21.1559 18.7826 21.858 18.7826 22.6087C18.7826 23.3947 19.1933 24.1233 19.8623 24.534L24.2228 27.5014L23.3308 32.7981C23.3132 32.8864 23.3043 32.9747 23.3043 33.0652C23.3043 33.8446 23.938 34.4783 24.7174 34.4783C25.4681 34.4783 26.0863 33.891 26.1282 33.1425L27.2432 26.7683V26.7661C27.2542 26.6999 27.2609 26.6315 27.2609 26.5652C27.2609 26.1921 27.0754 25.841 26.7663 25.6313L26.7641 25.6269L23.7283 23.3859L26.8127 20.6636L29.1641 23.2644L29.1707 23.2689C29.3826 23.5647 29.7227 23.7391 30.087 23.7391H34.3261C35.1055 23.7391 35.7391 23.1055 35.7391 22.3261C35.7391 21.5467 35.1055 20.913 34.3261 20.913H30.6522L27.4905 17.27C27.124 16.7203 26.508 16.3913 25.8478 16.3913ZM17.087 26C14.2852 26 12 28.2852 12 31.087C12 33.8888 14.2852 36.1739 17.087 36.1739C19.8888 36.1739 22.1739 33.8888 22.1739 31.087C22.1739 28.2852 19.8888 26 17.087 26ZM32.913 26C30.1112 26 27.8261 28.2852 27.8261 31.087C27.8261 33.8888 30.1112 36.1739 32.913 36.1739C35.7148 36.1739 38 33.8888 38 31.087C38 28.2852 35.7148 26 32.913 26ZM17.087 27.1304C19.2794 27.1304 21.0435 28.8945 21.0435 31.087C21.0435 33.2794 19.2794 35.0435 17.087 35.0435C14.8945 35.0435 13.1304 33.2794 13.1304 31.087C13.1304 28.8945 14.8945 27.1304 17.087 27.1304ZM32.913 27.1304C35.1055 27.1304 36.8696 28.8945 36.8696 31.087C36.8696 33.2794 35.1055 35.0435 32.913 35.0435C30.7206 35.0435 28.9565 33.2794 28.9565 31.087C28.9565 28.8945 30.7206 27.1304 32.913 27.1304Z"></path></svg>
