<svg width="16" height="16" viewBox="0 0 32 32" fill="rgba(0, 0, 0, 0.7)" xmlns="http://www.w3.org/2000/svg"><path d="M24.4725 11.5L23.6312 26.6375C23.5961 27.2758 23.3178 27.8763 22.8535 28.3157C22.3892 28.7551 21.7742 29 21.135 29H10.865C10.2258 29 9.61079 28.7551 9.14651 28.3157C8.68223 27.8763 8.40391 27.2758 8.36875 26.6375L7.5275 11.5H24.4725ZM7.25 4H24.75C25.0815 4 25.3995 4.1317 25.6339 4.36612C25.8683 4.60054 26 4.91848 26 5.25V7.75C26 8.08152 25.8683 8.39946 25.6339 8.63388C25.3995 8.8683 25.0815 9 24.75 9H7.25C6.91848 9 6.60054 8.8683 6.36612 8.63388C6.1317 8.39946 6 8.08152 6 7.75V5.25C6 4.91848 6.1317 4.60054 6.36612 4.36612C6.60054 4.1317 6.91848 4 7.25 4V4ZM13.5 14C13.1685 14 12.8505 14.1317 12.6161 14.3661C12.3817 14.6005 12.25 14.9185 12.25 15.25V24C12.25 24.3315 12.3817 24.6495 12.6161 24.8839C12.8505 25.1183 13.1685 25.25 13.5 25.25C13.8315 25.25 14.1495 25.1183 14.3839 24.8839C14.6183 24.6495 14.75 24.3315 14.75 24V15.25C14.75 14.9185 14.6183 14.6005 14.3839 14.3661C14.1495 14.1317 13.8315 14 13.5 14ZM18.5 14C18.1685 14 17.8505 14.1317 17.6161 14.3661C17.3817 14.6005 17.25 14.9185 17.25 15.25V24C17.25 24.3315 17.3817 24.6495 17.6161 24.8839C17.8505 25.1183 18.1685 25.25 18.5 25.25C18.8315 25.25 19.1495 25.1183 19.3839 24.8839C19.6183 24.6495 19.75 24.3315 19.75 24V15.25C19.75 14.9185 19.6183 14.6005 19.3839 14.3661C19.1495 14.1317 18.8315 14 18.5 14Z"></path></svg>
