<svg width="16" height="16" viewBox="0 0 32 32" fill="rgba(0, 0, 0, 0.7)" xmlns="http://www.w3.org/2000/svg"><path d="M18.961 16.001L26.3609 8.59904C26.5609 8.40593 26.7203 8.17495 26.83 7.91955C26.9398 7.66416 26.9975 7.38947 26.9999 7.11152C27.0023 6.83357 26.9494 6.55792 26.8441 6.30066C26.7389 6.04339 26.5834 5.80967 26.3869 5.61312C26.1903 5.41657 25.9566 5.26114 25.6993 5.15588C25.4421 5.05063 25.1664 4.99766 24.8885 5.00008C24.6105 5.00249 24.3358 5.06024 24.0805 5.16995C23.8251 5.27966 23.5941 5.43913 23.401 5.63907L15.999 13.039L8.59904 5.63907C8.40593 5.43913 8.17495 5.27966 7.91955 5.16995C7.66416 5.06024 7.38947 5.00249 7.11152 5.00008C6.83357 4.99766 6.55792 5.05063 6.30066 5.15588C6.04339 5.26114 5.80967 5.41657 5.61312 5.61312C5.41657 5.80967 5.26114 6.04339 5.15588 6.30066C5.05063 6.55792 4.99766 6.83357 5.00008 7.11152C5.00249 7.38947 5.06024 7.66416 5.16995 7.91955C5.27966 8.17495 5.43913 8.40593 5.63907 8.59904L13.039 15.999L5.63907 23.401C5.43913 23.5941 5.27966 23.8251 5.16995 24.0805C5.06024 24.3358 5.00249 24.6105 5.00008 24.8885C4.99766 25.1664 5.05063 25.4421 5.15588 25.6993C5.26114 25.9566 5.41657 26.1903 5.61312 26.3869C5.80967 26.5834 6.04339 26.7389 6.30066 26.8441C6.55792 26.9494 6.83357 27.0023 7.11152 26.9999C7.38947 26.9975 7.66416 26.9398 7.91955 26.83C8.17495 26.7203 8.40593 26.5609 8.59904 26.3609L15.999 18.961L23.401 26.3609C23.5941 26.5609 23.8251 26.7203 24.0805 26.83C24.3358 26.9398 24.6105 26.9975 24.8885 26.9999C25.1664 27.0023 25.4421 26.9494 25.6993 26.8441C25.9566 26.7389 26.1903 26.5834 26.3869 26.3869C26.5834 26.1903 26.7389 25.9566 26.8441 25.6993C26.9494 25.4421 27.0023 25.1664 26.9999 24.8885C26.9975 24.6105 26.9398 24.3358 26.83 24.0805C26.7203 23.8251 26.5609 23.5941 26.3609 23.401L18.961 15.999V16.001Z"></path></svg>
