<svg width="16" height="16" viewBox="0 0 50 50" xmlns="http://www.w3.org/2000/svg" fill="rgba(0, 0, 0, 0.7)"><path d="M18.84 16C18.2209 16 17.72 16.5009 17.72 17.12V32.8C17.72 33.4191 18.2209 33.92 18.84 33.92H19.96C20.5791 33.92 21.08 33.4191 21.08 32.8V26.64H28.92V32.8C28.92 33.4191 29.4209 33.92 30.04 33.92H31.16C31.7791 33.92 32.28 33.4191 32.28 32.8V17.12C32.28 16.5009 31.7791 16 31.16 16H30.04C29.4209 16 28.92 16.5009 28.92 17.12V23.28H21.08V17.12C21.08 16.5009 20.5791 16 19.96 16H18.84ZM14.92 18.24C14.3009 18.24 13.8 18.7409 13.8 19.36V30.56C13.8 31.1791 14.3009 31.68 14.92 31.68H16.6V18.24H14.92ZM33.4 18.24V31.68H35.08C35.6991 31.68 36.2 31.1791 36.2 30.56V19.36C36.2 18.7409 35.6991 18.24 35.08 18.24H33.4ZM11.56 23.28C11.2516 23.28 11 23.5316 11 23.84V26.08C11 26.3884 11.2516 26.64 11.56 26.64H12.68V23.28H11.56ZM37.32 23.28V26.64H38.44C38.7484 26.64 39 26.3884 39 26.08V23.84C39 23.5316 38.7484 23.28 38.44 23.28H37.32Z"></path></svg>
