<svg width="16" height="16" viewBox="0 0 26 12" fill="rgba(0, 0, 0, 0.7)" xmlns="http://www.w3.org/2000/svg"><path d="M20 10C17.319 10 15.042 7.185 14.202 6C15.042 4.815 17.319 2 20 2C22.206 2 24 3.794 24 6C24 8.206 22.206 10 20 10ZM6 10C3.794 10 2 8.206 2 6C2 3.794 3.794 2 6 2C8.681 2 10.958 4.815 11.798 6C10.958 7.185 8.681 10 6 10ZM20 0C16.796 0 14.256 2.645 13 4.264C11.744 2.645 9.204 0 6 0C2.691 0 0 2.691 0 6C0 9.309 2.691 12 6 12C9.204 12 11.744 9.355 13 7.736C14.256 9.355 16.796 12 20 12C23.309 12 26 9.309 26 6C26 2.691 23.309 0 20 0Z"></path></svg>
