<svg width="16" height="16" viewBox="0 0 16 16" xmlns="http://www.w3.org/2000/svg" fill="#7B7C7C"><mask id="path-1-outside-1_2222_354" maskUnits="userSpaceOnUse" x="4.00018" y="2" width="8" height="12"><rect x="4.00018" y="2" width="8" height="12"></rect><path d="M9.96251 13.0734L5.09894 8.52221C5.04229 8.4695 4.99733 8.40683 4.96665 8.3378C4.93598 8.26878 4.92018 8.19476 4.92018 8.12C4.92018 8.04524 4.93598 7.97122 4.96665 7.9022C4.99733 7.83317 5.04229 7.7705 5.09894 7.71779L9.96251 3.1666C10.019 3.11378 10.086 3.07188 10.1597 3.0433C10.2335 3.01471 10.3125 3 10.3923 3C10.5535 3 10.7082 3.05993 10.8221 3.1666C10.9361 3.27327 11.0002 3.41795 11.0002 3.56881C11.0002 3.71967 10.9361 3.86435 10.8221 3.97102L6.38839 8.12L10.8221 12.269C10.9361 12.3756 11.0002 12.5203 11.0002 12.6712C11.0002 12.822 10.9361 12.9667 10.8221 13.0734C10.7082 13.1801 10.5535 13.24 10.3923 13.24C10.2311 13.24 10.0765 13.1801 9.96251 13.0734"></path></mask><path d="M9.96251 13.0734L5.09894 8.52221C5.04229 8.4695 4.99733 8.40683 4.96665 8.3378C4.93598 8.26878 4.92018 8.19476 4.92018 8.12C4.92018 8.04524 4.93598 7.97122 4.96665 7.9022C4.99733 7.83317 5.04229 7.7705 5.09894 7.71779L9.96251 3.1666C10.019 3.11378 10.086 3.07188 10.1597 3.0433C10.2335 3.01471 10.3125 3 10.3923 3C10.5535 3 10.7082 3.05993 10.8221 3.1666C10.9361 3.27327 11.0002 3.41795 11.0002 3.56881C11.0002 3.71967 10.9361 3.86435 10.8221 3.97102L6.38839 8.12L10.8221 12.269C10.9361 12.3756 11.0002 12.5203 11.0002 12.6712C11.0002 12.822 10.9361 12.9667 10.8221 13.0734C10.7082 13.1801 10.5535 13.24 10.3923 13.24C10.2311 13.24 10.0765 13.1801 9.96251 13.0734"></path><path d="M5.09894 8.52221L5.23559 8.37618L5.23518 8.37579L5.09894 8.52221ZM5.09894 7.71779L5.23518 7.86421L5.23559 7.86382L5.09894 7.71779ZM9.96251 3.1666L10.0992 3.31263L9.96251 3.1666ZM11.0002 3.56881H11.2002H11.0002ZM10.8221 3.97102L10.6855 3.82499L10.8221 3.97102ZM6.38839 8.12L6.25174 7.97397L6.09568 8.12L6.25174 8.26603L6.38839 8.12ZM10.8221 12.269L10.9588 12.1229H10.9588L10.8221 12.269ZM10.0992 12.9274L5.23559 8.37618L4.96229 8.66824L9.82586 13.2194L10.0992 12.9274ZM5.23518 8.37579C5.19778 8.34099 5.16887 8.30035 5.14942 8.25658L4.78389 8.41903C4.82579 8.51331 4.8868 8.59801 4.9627 8.66863L5.23518 8.37579ZM5.14942 8.25658C5.12998 8.21285 5.12018 8.16648 5.12018 8.12H4.72018C4.72018 8.22304 4.74197 8.32471 4.78389 8.41903L5.14942 8.25658ZM5.12018 8.12C5.12018 8.07352 5.12998 8.02715 5.14942 7.98342L4.78389 7.82097C4.74197 7.91529 4.72018 8.01696 4.72018 8.12H5.12018ZM5.14942 7.98342C5.16887 7.93965 5.19778 7.89901 5.23518 7.86421L4.9627 7.57137C4.8868 7.64199 4.82579 7.72669 4.78389 7.82097L5.14942 7.98342ZM5.23559 7.86382L10.0992 3.31263L9.82586 3.02057L4.96229 7.57175L5.23559 7.86382ZM10.0992 3.31263C10.1365 3.2777 10.1815 3.24934 10.232 3.22978L10.0874 2.85682C9.9904 2.89443 9.90141 2.94987 9.82586 3.02057L10.0992 3.31263ZM10.232 3.22978C10.2825 3.21021 10.337 3.2 10.3923 3.2V2.8C10.288 2.8 10.1844 2.81921 10.0874 2.85682L10.232 3.22978ZM10.3923 3.2C10.5046 3.2 10.6099 3.24187 10.6855 3.31263L10.9588 3.02057C10.8064 2.87799 10.6025 2.8 10.3923 2.8V3.2ZM10.6855 3.31263C10.7607 3.38298 10.8002 3.47544 10.8002 3.56881H11.2002C11.2002 3.36046 11.1116 3.16357 10.9588 3.02057L10.6855 3.31263ZM10.8002 3.56881C10.8002 3.66218 10.7607 3.75464 10.6855 3.82499L10.9588 4.11706C11.1116 3.97406 11.2002 3.77716 11.2002 3.56881H10.8002ZM10.6855 3.82499L6.25174 7.97397L6.52505 8.26603L10.9588 4.11706L10.6855 3.82499ZM6.25174 8.26603L10.6855 12.415L10.9588 12.1229L6.52505 7.97397L6.25174 8.26603ZM10.6855 12.415C10.7607 12.4854 10.8002 12.5778 10.8002 12.6712H11.2002C11.2002 12.4628 11.1116 12.2659 10.9588 12.1229L10.6855 12.415ZM10.8002 12.6712C10.8002 12.7646 10.7607 12.857 10.6855 12.9274L10.9588 13.2194C11.1116 13.0764 11.2002 12.8795 11.2002 12.6712H10.8002ZM10.6855 12.9274C10.6099 12.9981 10.5046 13.04 10.3923 13.04V13.44C10.6025 13.44 10.8064 13.362 10.9588 13.2194L10.6855 12.9274ZM10.3923 13.04C10.28 13.04 10.1748 12.9981 10.0992 12.9274L9.82586 13.2194C9.97822 13.362 10.1822 13.44 10.3923 13.44V13.04Z"></path></svg>
