<svg width="16" height="16" viewBox="0 0 32 32" fill="rgba(0, 0, 0, 0.7)" xmlns="http://www.w3.org/2000/svg"><path d="M6.2 6H25.8C26.9139 6 27.9822 6.4425 28.7698 7.23015C29.5575 8.0178 30 9.08609 30 10.2V21.4C30 22.5139 29.5575 23.5822 28.7698 24.3699C27.9822 25.1575 26.9139 25.6 25.8 25.6H6.2C5.08609 25.6 4.0178 25.1575 3.23015 24.3699C2.4425 23.5822 2 22.5139 2 21.4V10.2C2 9.08609 2.4425 8.0178 3.23015 7.23015C4.0178 6.4425 5.08609 6 6.2 6V6ZM6.2 14.4V17.2H9V14.4H6.2ZM6.2 10.2V13H9V10.2H6.2ZM6.2 18.6V21.4H9V18.6H6.2ZM10.4 18.6V21.4H21.6V18.6H10.4ZM10.4 14.4V17.2H13.2V14.4H10.4ZM10.4 10.2V13H13.2V10.2H10.4ZM14.6 14.4V17.2H17.4V14.4H14.6ZM14.6 10.2V13H17.4V10.2H14.6ZM23 18.6V21.4H25.8V18.6H23ZM18.8 14.4V17.2H21.6V14.4H18.8ZM18.8 10.2V13H21.6V10.2H18.8ZM23 10.2V17.2H25.8V10.2H23Z"></path></svg>
