<svg width="20" height="20" viewBox="0 0 20 20" fill="#7B7C7C" xmlns="http://www.w3.org/2000/svg"><path d="M6.50624 4.55441H16.9631C17.2713 4.55441 17.5668 4.67635 17.7847 4.89342C18.0026 5.11049 18.125 5.40489 18.125 5.71187C18.125 6.01885 18.0026 6.31325 17.7847 6.53032C17.5668 6.74738 17.2713 6.86933 16.9631 6.86933H6.50624C6.19809 6.86933 5.90256 6.74738 5.68467 6.53032C5.46677 6.31325 5.34436 6.01885 5.34436 5.71187C5.34436 5.40489 5.46677 5.11049 5.68467 4.89342C5.90256 4.67635 6.19809 4.55441 6.50624 4.55441ZM6.50624 13.8141H16.9631C17.2713 13.8141 17.5668 13.936 17.7847 14.1531C18.0026 14.3702 18.125 14.6646 18.125 14.9716C18.125 15.2785 18.0026 15.5729 17.7847 15.79C17.5668 16.0071 17.2713 16.129 16.9631 16.129H6.50624C6.19809 16.129 5.90256 16.0071 5.68467 15.79C5.46677 15.5729 5.34436 15.2785 5.34436 14.9716C5.34436 14.6646 5.46677 14.3702 5.68467 14.1531C5.90256 13.936 6.19809 13.8141 6.50624 13.8141ZM6.50624 9.18425H16.9631C17.2713 9.18425 17.5668 9.3062 17.7847 9.52326C18.0026 9.74033 18.125 10.0347 18.125 10.3417C18.125 10.6487 18.0026 10.9431 17.7847 11.1602C17.5668 11.3772 17.2713 11.4992 16.9631 11.4992H6.50624C6.19809 11.4992 5.90256 11.3772 5.68467 11.1602C5.46677 10.9431 5.34436 10.6487 5.34436 10.3417C5.34436 10.0347 5.46677 9.74033 5.68467 9.52326C5.90256 9.3062 6.19809 9.18425 6.50624 9.18425ZM2.36764 4.375H3.20419L3.14958 6.86933H2.61395L2.67205 4.8785H2.11899L2.36764 4.375ZM2.46639 9.86715L1.94355 9.80581C1.95633 9.52339 2.04812 9.29768 2.21543 9.13216C2.30081 9.04966 2.40204 8.98519 2.51305 8.94263C2.62406 8.90007 2.74256 8.88028 2.86143 8.88447C3.02293 8.88447 3.16701 8.91919 3.29133 8.98748C3.41791 9.05714 3.52252 9.16055 3.59341 9.28611C3.66571 9.4057 3.70462 9.54236 3.70612 9.68196C3.70104 9.8578 3.65532 10.0301 3.5725 10.1855C3.48536 10.3625 3.32735 10.5674 3.09962 10.8047L2.91604 11.0015H3.66777V11.4992H1.875L1.89243 11.2318L2.66624 10.4447C2.84981 10.2595 2.97181 10.1114 3.0299 10.0026C3.08134 9.91645 3.11086 9.81909 3.11588 9.719C3.1173 9.68262 3.11111 9.64634 3.09771 9.61247C3.08431 9.57859 3.06399 9.54786 3.03804 9.52223C3.01047 9.49591 2.97782 9.47547 2.94206 9.46213C2.9063 9.4488 2.8682 9.44286 2.83006 9.44468C2.79005 9.44376 2.75033 9.4517 2.71377 9.46791C2.6772 9.48412 2.6447 9.50821 2.6186 9.53843C2.5791 9.58242 2.52914 9.69122 2.46639 9.86715ZM3.60736 14.9577C3.70031 15.0804 3.74794 15.2239 3.74794 15.3894C3.74946 15.5043 3.72642 15.6182 3.68034 15.7236C3.63427 15.829 3.56622 15.9234 3.48071 16.0005C3.29806 16.1684 3.05636 16.2578 2.80799 16.2494C2.69211 16.2537 2.57652 16.2351 2.46785 16.1948C2.35919 16.1545 2.25959 16.0932 2.17476 16.0144C2.00978 15.857 1.91915 15.644 1.96214 15.3165L2.49196 15.3651C2.50938 15.482 2.55005 15.5665 2.60814 15.6197C2.66624 15.6718 2.74176 15.6984 2.83355 15.6984C2.92998 15.6984 3.00783 15.6683 3.06941 15.6082C3.09953 15.5801 3.12337 15.546 3.13939 15.5081C3.1554 15.4702 3.16323 15.4293 3.16236 15.3882C3.16225 15.3408 3.15069 15.294 3.12865 15.2519C3.10661 15.2098 3.07474 15.1736 3.03571 15.1463C2.94857 15.0769 2.81844 15.0422 2.58723 14.9808L2.64068 14.5167C2.72147 14.5137 2.8012 14.4973 2.87654 14.4681C2.91967 14.4486 2.95664 14.4178 2.98343 14.3789C3.00742 14.3451 3.0204 14.3047 3.02061 14.2632C3.02148 14.2397 3.01726 14.2162 3.00824 14.1944C2.99922 14.1727 2.9856 14.1531 2.96833 14.137C2.92784 14.1013 2.87478 14.083 2.82077 14.0861C2.76613 14.0858 2.71297 14.1038 2.66972 14.137C2.62524 14.1693 2.59259 14.2153 2.57677 14.2678L2.521 14.3083L2.00513 14.2435C2.02193 14.0649 2.0975 13.8969 2.22008 13.7655C2.29959 13.6833 2.3954 13.6185 2.50143 13.5753C2.60745 13.5321 2.72135 13.5113 2.83587 13.5143C3.05547 13.5143 3.24253 13.5838 3.39241 13.725C3.46397 13.7882 3.52119 13.866 3.56026 13.953C3.59932 14.04 3.61934 14.1343 3.61898 14.2296C3.61973 14.3491 3.58452 14.466 3.51789 14.5653C3.45283 14.6637 3.35988 14.7424 3.23207 14.7042C3.38108 14.7467 3.51257 14.8355 3.60736 14.9577Z" fill="#7B7C7C"></path></svg>
