<svg width="16" height="16" viewBox="0 0 50 50" xmlns="http://www.w3.org/2000/svg" fill="#2AA8D0">
  <path
    d="M25.5 12C23.6489 12 22.1471 13.527 22.1471 15.4091C22.1471 17.2912 23.6489 18.8182 25.5 18.8182C27.3511 18.8182 28.8529 17.2912 28.8529 15.4091C28.8529 13.527 27.3511 12 25.5 12ZM25.5 19.9545C23.5114 19.9545 20.7871 20.5405 20.7871 20.5405L20.7762 20.5494C20.2305 20.6337 19.7742 20.9844 19.5363 21.4682L19.5254 21.4771L16.895 26.3244V26.3266C16.6876 26.6107 16.5588 26.9592 16.5588 27.3409C16.5588 28.282 17.3097 29.0455 18.2353 29.0455C18.3859 29.0455 18.53 29.0188 18.6697 28.9811L18.6719 28.9855L21.0294 28.4173V29.5448C21.0294 30.3216 17.1417 32.7409 17.1417 32.7409L17.1438 32.7475C16.4388 33.1492 16.0022 33.9061 16 34.7273C16 35.9835 16.9998 37 18.2353 37H21.4551C21.1866 36.5938 21.0294 36.1056 21.0294 35.5795C21.0294 34.3766 21.8698 33.3246 23.0268 33.076L28.1719 31.9019C28.4731 31.8331 28.7722 32.024 28.8377 32.3303C28.9053 32.6365 28.7176 32.9406 28.4164 33.0094L23.2625 34.1879C22.612 34.3256 22.1471 34.9115 22.1471 35.5795C22.1471 36.363 22.7736 37 23.5441 37H32.7647C34.0002 37 35 35.9835 35 34.7273C35 33.9172 34.5722 33.167 33.8824 32.7631L33.8845 32.7542C33.8845 32.7542 29.9706 30.224 29.9706 29.4982V28.4173L32.3281 28.9855L32.3303 28.9811C32.47 29.0188 32.6141 29.0455 32.7647 29.0455C33.6903 29.0455 34.4412 28.282 34.4412 27.3409C34.4412 26.9592 34.3124 26.6107 34.105 26.3266L34.1072 26.3244L31.4746 21.4771L31.4637 21.4682C31.2258 20.9844 30.7695 20.6337 30.2238 20.5494L30.2129 20.5405C30.2129 20.5405 27.4886 19.9545 25.5 19.9545ZM25.5 21.0909C25.7925 21.0909 26.467 21.0909 27.0979 24.065L30.1474 25.097C30.4399 25.1969 30.5971 25.5187 30.501 25.8161C30.4224 26.0536 30.2042 26.2045 29.9706 26.2045C29.9116 26.2045 29.8527 26.1934 29.7938 26.1757L26.4408 25.0393C26.2509 24.975 26.109 24.8107 26.0697 24.611C25.9148 23.8275 25.6877 23.0285 25.5 22.5558C25.3101 23.0285 25.0852 23.8275 24.9303 24.611C24.891 24.8107 24.7491 24.975 24.5592 25.0393L21.2062 26.1757C20.9115 26.2756 20.5972 26.1135 20.499 25.8161C20.4007 25.5187 20.5601 25.1969 20.8526 25.097L23.8999 24.065C24.5308 21.0909 25.2053 21.0909 25.5 21.0909Z"></path>
</svg>
