<svg width="16" height="16" viewBox="0 0 16 16" xmlns="http://www.w3.org/2000/svg" fill="#7B7C7C"><mask id="path-1-inside-1_2230_225"><path d="M13.1477 2C13.3738 2 13.5905 2.08979 13.7504 2.24962C13.9102 2.40946 14 2.62624 14 2.85227V13.6477C14 13.8738 13.9102 14.0905 13.7504 14.2504C13.5905 14.4102 13.3738 14.5 13.1477 14.5H2.35227C2.12624 14.5 1.90946 14.4102 1.74962 14.2504C1.58979 14.0905 1.5 13.8738 1.5 13.6477V2.85227C1.5 2.62624 1.58979 2.40946 1.74962 2.24962C1.90946 2.08979 2.12624 2 2.35227 2H13.1477ZM10.5909 13.3636H12.8636V3.13636H10.5909V13.3636ZM8.31818 8.81818C8.46887 8.81818 8.61339 8.75832 8.71995 8.65177C8.8265 8.54521 8.88636 8.40069 8.88636 8.25C8.88636 8.09931 8.8265 7.95479 8.71995 7.84823C8.61339 7.74168 8.46887 7.68182 8.31818 7.68182H5.47727V6.82955C5.47725 6.77556 5.46185 6.72271 5.43288 6.67716C5.4039 6.63161 5.36255 6.59527 5.31366 6.57237C5.26478 6.54948 5.21038 6.54099 5.15684 6.54789C5.1033 6.5548 5.05284 6.57682 5.01136 6.61136L3.30682 8.03182C3.27485 8.05848 3.24912 8.09184 3.23147 8.12955C3.21382 8.16725 3.20467 8.20837 3.20467 8.25C3.20467 8.29163 3.21382 8.33275 3.23147 8.37045C3.24912 8.40816 3.27485 8.44152 3.30682 8.46818L5.01136 9.88864C5.05262 9.92359 5.10309 9.94589 5.15671 9.95284C5.21034 9.9598 5.26483 9.95112 5.31364 9.92784C5.36256 9.90494 5.40394 9.86856 5.43292 9.82297C5.46191 9.77738 5.47729 9.72448 5.47727 9.67045V8.81818H8.31818Z"></path></mask><path d="M13.1477 2C13.3738 2 13.5905 2.08979 13.7504 2.24962C13.9102 2.40946 14 2.62624 14 2.85227V13.6477C14 13.8738 13.9102 14.0905 13.7504 14.2504C13.5905 14.4102 13.3738 14.5 13.1477 14.5H2.35227C2.12624 14.5 1.90946 14.4102 1.74962 14.2504C1.58979 14.0905 1.5 13.8738 1.5 13.6477V2.85227C1.5 2.62624 1.58979 2.40946 1.74962 2.24962C1.90946 2.08979 2.12624 2 2.35227 2H13.1477ZM10.5909 13.3636H12.8636V3.13636H10.5909V13.3636ZM8.31818 8.81818C8.46887 8.81818 8.61339 8.75832 8.71995 8.65177C8.8265 8.54521 8.88636 8.40069 8.88636 8.25C8.88636 8.09931 8.8265 7.95479 8.71995 7.84823C8.61339 7.74168 8.46887 7.68182 8.31818 7.68182H5.47727V6.82955C5.47725 6.77556 5.46185 6.72271 5.43288 6.67716C5.4039 6.63161 5.36255 6.59527 5.31366 6.57237C5.26478 6.54948 5.21038 6.54099 5.15684 6.54789C5.1033 6.5548 5.05284 6.57682 5.01136 6.61136L3.30682 8.03182C3.27485 8.05848 3.24912 8.09184 3.23147 8.12955C3.21382 8.16725 3.20467 8.20837 3.20467 8.25C3.20467 8.29163 3.21382 8.33275 3.23147 8.37045C3.24912 8.40816 3.27485 8.44152 3.30682 8.46818L5.01136 9.88864C5.05262 9.92359 5.10309 9.94589 5.15671 9.95284C5.21034 9.9598 5.26483 9.95112 5.31364 9.92784C5.36256 9.90494 5.40394 9.86856 5.43292 9.82297C5.46191 9.77738 5.47729 9.72448 5.47727 9.67045V8.81818H8.31818Z" fill="#7B7C7C"></path><path d="M2.35227 2L2.35227 1L2.35227 2ZM10.5909 13.3636H9.59091V14.3636H10.5909V13.3636ZM12.8636 13.3636V14.3636H13.8636V13.3636H12.8636ZM12.8636 3.13636H13.8636V2.13636H12.8636V3.13636ZM10.5909 3.13636V2.13636H9.59091V3.13636H10.5909ZM5.47727 7.68182H4.47727V8.68182H5.47727V7.68182ZM5.47727 6.82955H6.47727L6.47727 6.82917L5.47727 6.82955ZM5.01136 6.61136L4.37136 5.84299L4.37118 5.84314L5.01136 6.61136ZM3.30682 8.03182L2.66663 7.2636L2.66637 7.26382L3.30682 8.03182ZM3.30682 8.46818L2.66637 9.23618L2.66663 9.2364L3.30682 8.46818ZM5.01136 9.88864L5.65786 9.12567L5.65155 9.12042L5.01136 9.88864ZM5.31364 9.92784L4.88963 9.02216L4.88319 9.02523L5.31364 9.92784ZM5.47727 9.67045H4.47727V9.67079L5.47727 9.67045ZM5.47727 8.81818V7.81818H4.47727V8.81818H5.47727ZM13.1477 3C13.1085 3 13.071 2.98444 13.0433 2.95673L14.4575 1.54252C14.1101 1.19515 13.639 1 13.1477 1V3ZM13.0433 2.95673C13.0156 2.92903 13 2.89145 13 2.85227H15C15 2.36102 14.8048 1.88989 14.4575 1.54252L13.0433 2.95673ZM13 2.85227V13.6477H15V2.85227H13ZM13 13.6477C13 13.6085 13.0156 13.571 13.0433 13.5433L14.4575 14.9575C14.8048 14.6101 15 14.139 15 13.6477H13ZM13.0433 13.5433C13.071 13.5156 13.1085 13.5 13.1477 13.5V15.5C13.639 15.5 14.1101 15.3048 14.4575 14.9575L13.0433 13.5433ZM13.1477 13.5H2.35227V15.5H13.1477V13.5ZM2.35227 13.5C2.39145 13.5 2.42903 13.5156 2.45673 13.5433L1.04252 14.9575C1.38989 15.3048 1.86102 15.5 2.35227 15.5V13.5ZM2.45673 13.5433C2.48444 13.571 2.5 13.6085 2.5 13.6477H0.5C0.5 14.139 0.69515 14.6101 1.04252 14.9575L2.45673 13.5433ZM2.5 13.6477V2.85227H0.5V13.6477H2.5ZM2.5 2.85227C2.5 2.89145 2.48444 2.92903 2.45673 2.95673L1.04252 1.54252C0.695149 1.88989 0.5 2.36102 0.5 2.85227H2.5ZM2.45673 2.95673C2.42903 2.98444 2.39145 3 2.35227 3L2.35227 1C1.86102 1 1.38989 1.19515 1.04252 1.54252L2.45673 2.95673ZM2.35227 3H13.1477V1H2.35227V3ZM10.5909 14.3636H12.8636V12.3636H10.5909V14.3636ZM13.8636 13.3636V3.13636H11.8636V13.3636H13.8636ZM12.8636 2.13636H10.5909V4.13636H12.8636V2.13636ZM9.59091 3.13636V13.3636H11.5909V3.13636H9.59091ZM8.31818 9.81818C8.73409 9.81818 9.13296 9.65297 9.42705 9.35887L8.01284 7.94466C8.09382 7.86368 8.20366 7.81818 8.31818 7.81818V9.81818ZM9.42705 9.35887C9.72115 9.06478 9.88636 8.6659 9.88636 8.25H7.88636C7.88636 8.13548 7.93186 8.02564 8.01284 7.94466L9.42705 9.35887ZM9.88636 8.25C9.88636 7.83409 9.72115 7.43522 9.42705 7.14113L8.01284 8.55534C7.93186 8.47436 7.88636 8.36452 7.88636 8.25H9.88636ZM9.42705 7.14113C9.13296 6.84704 8.73409 6.68182 8.31818 6.68182V8.68182C8.20366 8.68182 8.09382 8.63632 8.01284 8.55534L9.42705 7.14113ZM8.31818 6.68182H5.47727V8.68182H8.31818V6.68182ZM6.47727 7.68182V6.82955H4.47727V7.68182H6.47727ZM6.47727 6.82917C6.47718 6.58518 6.40758 6.34626 6.27661 6.14039L4.58915 7.21393C4.51613 7.09915 4.47732 6.96595 4.47727 6.82992L6.47727 6.82917ZM6.27661 6.14039C6.14564 5.93452 5.95872 5.77023 5.73776 5.66676L4.88957 7.47799C4.76638 7.4203 4.66217 7.32871 4.58915 7.21393L6.27661 6.14039ZM5.73776 5.66676C5.51679 5.56328 5.27091 5.5249 5.02892 5.55611L5.28476 7.53968C5.14985 7.55708 5.01276 7.53568 4.88957 7.47799L5.73776 5.66676ZM5.02892 5.55611C4.78694 5.58732 4.55884 5.68683 4.37136 5.84299L5.65136 7.37974C5.54684 7.4668 5.41967 7.52228 5.28476 7.53968L5.02892 5.55611ZM4.37118 5.84314L2.66663 7.2636L3.947 8.80004L5.65155 7.37958L4.37118 5.84314ZM2.66637 7.26382C2.52186 7.38433 2.4056 7.53513 2.32581 7.70555L4.13714 8.55354C4.09265 8.64856 4.02783 8.73263 3.94727 8.79982L2.66637 7.26382ZM2.32581 7.70555C2.24603 7.87596 2.20467 8.06183 2.20467 8.25H4.20467C4.20467 8.35491 4.18162 8.45853 4.13714 8.55354L2.32581 7.70555ZM2.20467 8.25C2.20467 8.43817 2.24603 8.62404 2.32581 8.79445L4.13714 7.94646C4.18162 8.04147 4.20467 8.14509 4.20467 8.25H2.20467ZM2.32581 8.79445C2.40559 8.96487 2.52185 9.11567 2.66637 9.23618L3.94727 7.70018C4.02784 7.76737 4.09266 7.85145 4.13714 7.94646L2.32581 8.79445ZM2.66663 9.2364L4.37118 10.6569L5.65155 9.12042L3.947 7.69996L2.66663 9.2364ZM4.36489 10.6516C4.55313 10.8111 4.78342 10.9128 5.02809 10.9445L5.28534 8.96115C5.42276 8.97897 5.55211 9.03611 5.65784 9.1257L4.36489 10.6516ZM5.02809 10.9445C5.27277 10.9763 5.5214 10.9367 5.74409 10.8305L4.88319 9.02523C5.00826 8.96558 5.14791 8.94333 5.28534 8.96115L5.02809 10.9445ZM5.73764 10.8335C5.95878 10.73 6.14581 10.5655 6.27681 10.3595L4.58903 9.28645C4.66207 9.17157 4.76635 9.0799 4.88964 9.02218L5.73764 10.8335ZM6.27681 10.3595C6.40782 10.1534 6.47736 9.91429 6.47727 9.67012L4.47727 9.67079C4.47723 9.53466 4.516 9.40133 4.58903 9.28645L6.27681 10.3595ZM6.47727 9.67045V8.81818H4.47727V9.67045H6.47727ZM5.47727 9.81818H8.31818V7.81818H5.47727V9.81818Z" mask="url(#path-1-inside-1_2230_225)"></path></svg>
