<svg width="16" height="16" viewBox="0 0 50 50" xmlns="http://www.w3.org/2000/svg" fill="#2AA8D0">
  <path
    d="M26.5291 33.3742H23.4729C22.6294 33.3742 21.9449 34.0598 21.9449 34.9022C21.9449 35.5919 22.4053 36.1695 23.0349 36.359C23.2233 36.9875 23.8009 37.449 24.4916 37.449H25.5103C26.199 37.449 26.7766 36.9875 26.9671 36.359C27.2812 36.2655 27.5568 36.0734 27.7531 35.811C27.9495 35.5486 28.0561 35.23 28.0571 34.9022C28.0571 34.0598 27.3705 33.3742 26.5291 33.3742ZM36.5898 21.9168L34.5911 21.5195C34.5255 21.5064 34.458 21.5064 34.3923 21.5195C34.3267 21.5326 34.2643 21.5584 34.2087 21.5956C34.1531 21.6328 34.1053 21.6805 34.0682 21.7362C34.031 21.7918 34.0052 21.8542 33.9921 21.9198C33.9791 21.9854 33.9791 22.053 33.9921 22.1186C34.0052 22.1842 34.0311 22.2466 34.0682 22.3022C34.1054 22.3579 34.1532 22.4056 34.2088 22.4428C34.2644 22.4799 34.3268 22.5058 34.3925 22.5188L36.3912 22.9151C36.5212 22.9356 36.654 22.9051 36.762 22.8298C36.8699 22.7546 36.9446 22.6404 36.9702 22.5114C36.9959 22.3823 36.9707 22.2483 36.8997 22.1375C36.8288 22.0266 36.7178 21.9475 36.5898 21.9168ZM33.33 25.0839C33.2743 25.0468 33.2119 25.021 33.1463 25.008C33.0806 24.995 33.0131 24.9951 32.9475 25.0082C32.8819 25.0213 32.8195 25.0472 32.7639 25.0844C32.7083 25.1216 32.6606 25.1694 32.6235 25.225C32.5864 25.2807 32.5606 25.3431 32.5476 25.4087C32.5346 25.4743 32.5346 25.5419 32.5477 25.6075C32.5608 25.6731 32.5867 25.7355 32.6239 25.7911C32.6611 25.8466 32.7089 25.8944 32.7646 25.9315L34.4577 27.0633C34.5701 27.1383 34.7076 27.1655 34.8401 27.1391C34.9726 27.1126 35.0892 27.0346 35.1641 26.9222C35.2391 26.8098 35.2664 26.6722 35.2399 26.5397C35.2135 26.4072 35.1354 26.2907 35.023 26.2157L33.33 25.0839ZM30.0945 20.131C30.0945 17.3224 27.8096 15.0374 25.001 15.0374C24.8659 15.0374 24.7363 15.0911 24.6408 15.1866C24.5453 15.2821 24.4916 15.4117 24.4916 15.5468C24.4916 15.6819 24.5453 15.8114 24.6408 15.9069C24.7363 16.0025 24.8659 16.0561 25.001 16.0561C27.2483 16.0561 29.0758 17.8837 29.0758 20.131C29.0758 20.2661 29.1295 20.3956 29.225 20.4911C29.3205 20.5867 29.4501 20.6403 29.5852 20.6403C29.7203 20.6403 29.8498 20.5867 29.9453 20.4911C30.0409 20.3956 30.0945 20.2661 30.0945 20.131ZM32.132 20.131C32.132 22.5025 31.101 24.2404 30.1047 25.9223C29.2164 27.4178 28.2985 28.9652 28.0989 30.9955C28.0613 31.3702 27.8852 31.7174 27.6049 31.9689C27.3247 32.2205 26.9606 32.3584 26.5841 32.3555H23.4159C22.6294 32.3555 21.9795 31.7707 21.9021 30.9955C21.7024 28.9652 20.7846 27.4178 19.8973 25.9223C18.8999 24.2404 17.87 22.5025 17.87 20.131C17.87 16.1998 21.0688 13 25.001 13C28.9332 13 32.132 16.1998 32.132 20.131ZM13.4101 18.3452L15.4088 18.7425C15.5413 18.7688 15.6789 18.7414 15.7912 18.6663C15.9036 18.5913 15.9815 18.4746 16.0078 18.3421C16.0342 18.2096 16.0068 18.072 15.9317 17.9597C15.8566 17.8474 15.74 17.7695 15.6075 17.7431L13.6088 17.3468C13.4765 17.3213 13.3394 17.3488 13.2273 17.4236C13.1152 17.4983 13.0371 17.6142 13.0098 17.7462C12.9967 17.8118 12.9967 17.8793 13.0098 17.945C13.0228 18.0106 13.0487 18.073 13.0858 18.1286C13.123 18.1842 13.1708 18.232 13.2264 18.2691C13.2821 18.3063 13.3445 18.3321 13.4101 18.3452ZM33.0468 15.2636C33.1475 15.2633 33.2459 15.2336 33.33 15.178L35.023 14.0462C35.0787 14.0091 35.1265 13.9614 35.1637 13.9058C35.2009 13.8502 35.2268 13.7878 35.2399 13.7222C35.253 13.6566 35.2531 13.5891 35.2401 13.5234C35.2271 13.4578 35.2013 13.3954 35.1641 13.3397C35.127 13.2841 35.0793 13.2363 35.0237 13.1991C34.9681 13.1619 34.9057 13.136 34.8401 13.1229C34.7745 13.1098 34.707 13.1097 34.6414 13.1227C34.5757 13.1357 34.5133 13.1615 34.4577 13.1986L32.7646 14.3304C32.6736 14.3911 32.6046 14.4793 32.5677 14.5822C32.5308 14.685 32.528 14.797 32.5596 14.9017C32.5912 15.0063 32.6557 15.0979 32.7434 15.1631C32.8311 15.2283 32.9375 15.2635 33.0468 15.2636ZM15.5423 13.1986C15.4866 13.1615 15.4242 13.1357 15.3586 13.1227C15.293 13.1097 15.2254 13.1098 15.1598 13.1229C15.0942 13.136 15.0318 13.1619 14.9762 13.1991C14.9206 13.2363 14.8729 13.2841 14.8358 13.3397C14.7987 13.3954 14.7729 13.4578 14.7599 13.5234C14.7469 13.5891 14.7469 13.6566 14.76 13.7222C14.7731 13.7878 14.799 13.8502 14.8362 13.9058C14.8734 13.9614 14.9212 14.0091 14.9769 14.0462L16.67 15.178C16.7824 15.253 16.92 15.2802 17.0524 15.2538C17.1849 15.2273 17.3015 15.1493 17.3765 15.0369C17.4514 14.9245 17.4787 14.7869 17.4522 14.6545C17.4258 14.522 17.3478 14.4054 17.2354 14.3304L15.5423 13.1986ZM16.67 25.0839L14.9769 26.2157C14.8645 26.2907 14.7865 26.4072 14.76 26.5397C14.7336 26.6722 14.7608 26.8098 14.8358 26.9222C14.9108 27.0346 15.0273 27.1126 15.1598 27.1391C15.2923 27.1655 15.4299 27.1383 15.5423 27.0633L17.2354 25.9315C17.3478 25.8565 17.4258 25.74 17.4522 25.6075C17.4787 25.475 17.4514 25.3374 17.3765 25.225C17.3015 25.1126 17.1849 25.0346 17.0524 25.0082C16.92 24.9817 16.7824 25.009 16.67 25.0839ZM33.9921 18.3421C34.0051 18.4077 34.031 18.4701 34.0681 18.5258C34.1053 18.5814 34.1531 18.6292 34.2087 18.6664C34.2643 18.7036 34.3267 18.7294 34.3923 18.7425C34.4579 18.7555 34.5255 18.7555 34.5911 18.7425L36.5898 18.3452C36.6554 18.3321 36.7179 18.3063 36.7735 18.2691C36.8291 18.232 36.8769 18.1842 36.9141 18.1286C36.9513 18.073 36.9771 18.0106 36.9902 17.945C37.0032 17.8793 37.0032 17.8118 36.9902 17.7462C36.9631 17.6141 36.885 17.498 36.7728 17.4232C36.6607 17.3485 36.5235 17.321 36.3912 17.3468L34.3925 17.7431C34.3268 17.7561 34.2644 17.782 34.2088 17.8191C34.1532 17.8563 34.1054 17.904 34.0682 17.9597C34.031 18.0153 34.0052 18.0777 33.9921 18.1433C33.9791 18.2089 33.9791 18.2765 33.9921 18.3421ZM15.6075 22.5188L13.6088 22.9151C13.4788 22.9356 13.3459 22.9051 13.238 22.8298C13.13 22.7546 13.0554 22.6404 13.0297 22.5114C13.004 22.3823 13.0293 22.2483 13.1002 22.1375C13.1711 22.0266 13.2822 21.9475 13.4101 21.9168L15.4088 21.5195C15.4744 21.5064 15.542 21.5064 15.6076 21.5195C15.6732 21.5326 15.7356 21.5584 15.7912 21.5956C15.8469 21.6328 15.8946 21.6805 15.9318 21.7362C15.9689 21.7918 15.9948 21.8542 16.0078 21.9198C16.0209 21.9854 16.0209 22.053 16.0078 22.1186C15.9947 22.1842 15.9689 22.2466 15.9317 22.3022C15.8945 22.3579 15.8468 22.4056 15.7911 22.4428C15.7355 22.4799 15.6731 22.5058 15.6075 22.5188Z"></path>
</svg>
