<svg width="16" height="16" viewBox="0 0 16 16" xmlns="http://www.w3.org/2000/svg" fill="#7B7C7C"><path d="M2.9 2.36626C2.77034 2.3947 2.65035 2.4597 2.55503 2.55503C2.42375 2.6863 2.35 2.86435 2.35 3.05V6.35C2.35 6.53565 2.42375 6.7137 2.55503 6.84497C2.6863 6.97625 2.86435 7.05 3.05 7.05C3.23565 7.05 3.4137 6.97625 3.54497 6.84497C3.67625 6.7137 3.75 6.53565 3.75 6.35V4.73983L11.2602 12.25H9.65C9.46435 12.25 9.2863 12.3237 9.15503 12.455C9.02375 12.5863 8.95 12.7643 8.95 12.95C8.95 13.1357 9.02375 13.3137 9.15503 13.445C9.2863 13.5763 9.46435 13.65 9.65 13.65H12.95C13.1357 13.65 13.3137 13.5763 13.445 13.445C13.5763 13.3137 13.65 13.1357 13.65 12.95V9.65C13.65 9.46435 13.5763 9.2863 13.445 9.15503C13.3137 9.02375 13.1357 8.95 12.95 8.95C12.7643 8.95 12.5863 9.02375 12.455 9.15503C12.3237 9.2863 12.25 9.46435 12.25 9.65V11.2602L4.73983 3.75H6.35C6.53565 3.75 6.7137 3.67625 6.84497 3.54497C6.97625 3.4137 7.05 3.23565 7.05 3.05C7.05 2.86435 6.97625 2.6863 6.84497 2.55503C6.7137 2.42375 6.53565 2.35 6.35 2.35H3.05H2.9V2.36626Z"></path></svg>
