<svg width="16" height="16" viewBox="0 0 50 50" xmlns="http://www.w3.org/2000/svg" fill="#2AA8D0">
  <path
    d="M31.1538 12C29.625 12 28.3846 13.2404 28.3846 14.7692C28.3846 16.2981 29.625 17.5385 31.1538 17.5385C32.6851 17.5385 33.9231 16.2981 33.9231 14.7692C33.9231 13.2404 32.6851 12 31.1538 12ZM22.2308 16.3077C21.9952 16.3077 21.7644 16.375 21.5673 16.5024H21.5649L21.5457 16.5072L17.2812 19.5673C16.9159 19.7885 16.6923 20.1875 16.6923 20.6154C16.6923 21.2957 17.2428 21.8462 17.9231 21.8462C18.2139 21.8462 18.4928 21.7428 18.7139 21.5553L18.7163 21.5577L22.4038 18.9038L25.1178 19.7668L22.0817 24.7139V24.7163C21.7788 25.1346 21.6154 25.637 21.6154 26.1538C21.6178 27.0841 22.1442 27.9351 22.976 28.3534L27.6178 31.2163L26.5673 36.6226C26.5481 36.7212 26.5385 36.8221 26.5385 36.9231C26.5385 37.7716 27.2284 38.4615 28.0769 38.4615C28.8173 38.4615 29.4519 37.9351 29.5865 37.2091H29.5889L30.8365 30.6394L30.8341 30.6298C30.8413 30.5745 30.8462 30.5168 30.8462 30.4615C30.8462 30.1154 30.6995 29.7861 30.4423 29.5529L30.4399 29.5433L27.1154 26.5962L29.9904 20.9135H29.988C30.1466 20.6346 30.2308 20.3197 30.2308 20C30.2308 19.2644 29.7933 18.5986 29.1178 18.3077V18.3053L27.5769 17.4447L22.5505 16.3486H22.5433C22.4423 16.3221 22.3365 16.3077 22.2308 16.3077ZM30.9784 21.6875L29.5986 24.4135L30.3438 26.0553L30.3486 26.0577C30.5457 26.4784 30.9688 26.7692 31.4615 26.7692H35.7692C36.4495 26.7692 37 26.2188 37 25.5385C37 24.8582 36.4495 24.3077 35.7692 24.3077H32.0769L30.9784 21.6875ZM20.7019 27.6394L19.3029 29.8462H14.5385C13.6875 29.8462 13 30.5337 13 31.3846C13 32.2356 13.6875 32.9231 14.5385 32.9231H19.7284C20.5264 32.9231 21.274 32.5361 21.7356 31.8846L23.1418 29.9014C22.6322 29.5865 22.2644 29.3582 22.2596 29.3558C21.5577 28.9567 21.0192 28.351 20.7019 27.6394Z"></path>
</svg>
