<svg width="20" height="20" viewBox="0 0 20 20" fill="#7B7C7C" xmlns="http://www.w3.org/2000/svg"><path d="M12.0312 10C12.0312 11.1199 11.1199 12.0312 10 12.0312C8.8801 12.0312 7.96875 11.1199 7.96875 10C7.96875 8.8801 8.8801 7.96875 10 7.96875C11.1199 7.96875 12.0312 8.8801 12.0312 10ZM17.8934 9.00198L15.8818 8.33099C15.7535 8.28739 15.6362 8.21634 15.5381 8.1228C15.4399 8.02925 15.3634 7.91546 15.3137 7.78932C15.2625 7.66691 15.2383 7.53489 15.2428 7.40227C15.2472 7.26965 15.2802 7.13955 15.3395 7.02083L16.2874 5.12432C16.3194 5.06083 16.3305 4.98883 16.3191 4.91864C16.3077 4.84845 16.2743 4.78369 16.2237 4.73365L15.2664 3.77625C15.2163 3.72581 15.1515 3.6925 15.0813 3.68107C15.0112 3.66964 14.9392 3.68068 14.8757 3.7126L12.9792 4.66052C12.8585 4.72003 12.7264 4.75278 12.5919 4.75652C12.4574 4.76026 12.3236 4.7349 12.1998 4.68219C12.0759 4.63191 11.9643 4.55541 11.8726 4.45794C11.781 4.36047 11.7115 4.24433 11.669 4.1175L10.9987 2.10656C10.976 2.03918 10.9328 1.9806 10.8751 1.93906C10.8174 1.89752 10.7482 1.87512 10.6771 1.875H9.32292C9.25183 1.87512 9.18256 1.89752 9.12487 1.93906C9.06718 1.9806 9.02396 2.03918 9.0013 2.10656L8.33099 4.1175C8.28751 4.246 8.21652 4.36346 8.12297 4.4617C8.02941 4.55993 7.91555 4.63656 7.78932 4.68625C7.54016 4.78849 7.25984 4.78104 7.02083 4.66052L5.12432 3.7126C5.06081 3.68068 4.98883 3.66964 4.91866 3.68107C4.8485 3.6925 4.78374 3.72581 4.73365 3.77625L3.77625 4.73365C3.72572 4.78369 3.69235 4.84845 3.68091 4.91864C3.66948 4.98883 3.68057 5.06083 3.7126 5.12432L4.66052 7.02083C4.78036 7.25984 4.78984 7.53948 4.68219 7.80016C4.63183 7.92415 4.55532 8.03583 4.45787 8.12755C4.36041 8.21928 4.24432 8.2889 4.1175 8.33167L2.10656 9.00198C2.03918 9.02442 1.98056 9.06749 1.939 9.12509C1.89744 9.18268 1.87505 9.25189 1.875 9.32292V10.6771C1.875 10.8227 1.96844 10.952 2.10656 10.9987L4.1175 11.669C4.37276 11.7543 4.57859 11.9473 4.68625 12.2114C4.78984 12.4605 4.77969 12.7402 4.66052 12.9792L3.7126 14.8757C3.68057 14.9392 3.66948 15.0112 3.68091 15.0814C3.69235 15.1516 3.72572 15.2163 3.77625 15.2664L4.73365 16.2237C4.78385 16.274 4.8486 16.3072 4.91871 16.3186C4.98883 16.33 5.06076 16.3191 5.12432 16.2874L7.02083 15.3395C7.14162 15.2799 7.27384 15.2471 7.40846 15.2434C7.54309 15.2397 7.67693 15.265 7.80083 15.3178C8.05271 15.4214 8.24568 15.6272 8.33099 15.8825L9.0013 17.8934C9.04802 18.0316 9.17734 18.125 9.32292 18.125H10.6771C10.7482 18.1249 10.8174 18.1025 10.8751 18.0609C10.9328 18.0194 10.976 17.9608 10.9987 17.8934L11.669 15.8825C11.7543 15.6272 11.9473 15.4214 12.2114 15.3137C12.3337 15.2626 12.4656 15.2383 12.5981 15.2428C12.7306 15.2472 12.8606 15.2802 12.9792 15.3395L14.8757 16.2874C14.9392 16.3191 15.0112 16.33 15.0813 16.3186C15.1514 16.3072 15.2161 16.274 15.2664 16.2237L16.2237 15.2664C16.2743 15.2163 16.3077 15.1516 16.3191 15.0814C16.3305 15.0112 16.3194 14.9392 16.2874 14.8757L15.3395 12.9792C15.279 12.8579 15.2459 12.7248 15.2424 12.5894C15.2389 12.4539 15.2651 12.3193 15.3192 12.1951C15.4241 11.9453 15.6279 11.7536 15.8818 11.669L17.8934 10.9987C17.9608 10.976 18.0194 10.9328 18.0609 10.8751C18.1025 10.8174 18.1249 10.7482 18.125 10.6771V9.32292C18.1249 9.25189 18.1026 9.18268 18.061 9.12509C18.0194 9.06749 17.9608 9.02442 17.8934 9.00198Z"></path></svg>
