<svg width="16" height="16" viewBox="0 0 32 32" fill="rgba(0, 0, 0, 0.7)" xmlns="http://www.w3.org/2000/svg"><path d="M15.3212 8.76899L21.2718 14.7196H6.57131C6.11479 14.7196 5.67697 14.901 5.35416 15.2238C5.03135 15.5466 4.85 15.9844 4.85 16.4409C4.85 16.8974 5.03135 17.3353 5.35416 17.6581C5.67697 17.9809 6.11479 18.1622 6.57131 18.1622H21.2718L15.323 24.111C15.3227 24.1113 15.3224 24.1116 15.3221 24.1119C15.1581 24.2705 15.0273 24.4601 14.9373 24.6698C14.8471 24.8798 14.7996 25.1056 14.7976 25.3342C14.7956 25.5627 14.8392 25.7894 14.9257 26.0009C15.0123 26.2125 15.1401 26.4047 15.3017 26.5663C15.4633 26.7279 15.6555 26.8557 15.867 26.9423C16.0786 27.0288 16.3052 27.0724 16.5338 27.0704C16.7624 27.0684 16.9882 27.0209 17.1982 26.9307C17.4078 26.8407 17.5974 26.7099 17.756 26.5459C17.7563 26.5456 17.7566 26.5453 17.757 26.545L26.6437 17.6582C26.8042 17.4987 26.9315 17.309 27.0184 17.1001C27.1053 16.8912 27.15 16.6672 27.15 16.4409C27.15 16.2147 27.1053 15.9906 27.0184 15.7817C26.9315 15.5728 26.8042 15.3832 26.6437 15.2236L17.7551 6.33502L17.7551 6.335L17.7533 6.33319C17.4286 6.01964 16.9938 5.84614 16.5425 5.85007C16.0912 5.85399 15.6594 6.03502 15.3403 6.35416C15.0212 6.67331 14.8401 7.10503 14.8362 7.55636C14.8323 8.00768 15.0058 8.44249 15.3193 8.76713L15.3193 8.76714L15.3212 8.76899Z" stroke-width="0.3"></path></svg>
