<svg width="16" height="16" viewBox="0 0 50 50" xmlns="http://www.w3.org/2000/svg" fill="#2AA8D0"><path d="M14.6 15C13.7408 15 13.04 15.7008 13.04 16.56V23.7425C13.7144 23.1575 14.5675 22.6842 15.64 22.3125V20.2C15.64 18.8167 18.0024 18.64 20.06 18.64C22.1177 18.64 24.48 18.8167 24.48 20.2V21.24C24.6547 21.238 24.8213 21.24 25 21.24C25.1788 21.24 25.3453 21.238 25.52 21.24V20.2C25.52 18.8167 27.8823 18.64 29.94 18.64C31.9976 18.64 34.36 18.8167 34.36 20.2V22.2962C35.4305 22.6659 36.2795 23.1494 36.96 23.7425V16.56C36.96 15.7008 36.2592 15 35.4 15H14.6ZM25 22.28C15.0713 22.28 11.9919 24.1162 12 29.04H38C38.0081 24.0837 34.9287 22.28 25 22.28ZM12 30.08V35.8H15.64V33.72C15.64 32.9725 15.9325 32.68 16.68 32.68H33.32C34.0675 32.68 34.36 32.9725 34.36 33.72V35.8H38V30.08H12Z"></path></svg>
