<svg width="16" height="16" viewBox="0 0 32 32" fill="#7B7C7C" xmlns="http://www.w3.org/2000/svg" aria-hidden="true" focusable="false"><path d="M6.64928 4.04303C6.58998 3.97893 6.51842 3.92784 6.439 3.89293C6.35957 3.85801 6.27396 3.84 6.18744 3.84C6.10092 3.84 6.01531 3.85801 5.93589 3.89293C5.85647 3.92784 5.7849 3.97893 5.72561 4.04303L1.43234 9.03636C1.35441 9.12661 1.30374 9.23783 1.28642 9.35667C1.2691 9.4755 1.28586 9.59689 1.33469 9.70627C1.38352 9.81565 1.46235 9.90836 1.5617 9.97328C1.66105 10.0382 1.77671 10.0725 1.89479 10.0722H4.96018V27.552C4.96018 27.883 5.08942 28.2004 5.31946 28.4345C5.5495 28.6685 5.8615 28.8 6.18683 28.8C6.51216 28.8 6.82416 28.6685 7.0542 28.4345C7.28424 28.2004 7.41348 27.883 7.41348 27.552V10.0722H10.4801C10.5983 10.0728 10.7141 10.0386 10.8136 9.97372C10.9131 9.90882 10.9921 9.81598 11.0408 9.70644C11.0896 9.5969 11.1062 9.47533 11.0885 9.35642C11.0708 9.23752 11.0197 9.12635 10.9413 9.03636L6.64805 4.04303H6.64928ZM28.8798 20.0601H15.3867C14.371 20.0601 13.5467 20.9 13.5467 21.9321V23.1814C13.5467 24.2135 14.371 25.0534 15.3867 25.0534H28.8798C29.8943 25.0534 30.7198 24.2135 30.7198 23.1814V21.9334C30.7198 20.9 29.8943 20.0614 28.8798 20.0614V20.0601ZM15.3867 12.5695H19.0666C20.0811 12.5695 20.9066 11.7283 20.9066 10.6962V9.44821C20.9066 8.41485 20.0811 7.57493 19.0666 7.57493H15.3867C14.371 7.57493 13.5467 8.41485 13.5467 9.44696V10.6962C13.5467 11.7283 14.371 12.5683 15.3867 12.5683V12.5695ZM13.5467 16.9388V15.6908C13.5467 14.6574 14.371 13.8175 15.3867 13.8175H23.9732C24.9877 13.8175 25.8132 14.6574 25.8132 15.6896V16.9388C25.8132 17.9709 24.9877 18.8108 23.9732 18.8108H15.3867C14.371 18.8108 13.5467 17.9709 13.5467 16.9388Z"></path></svg>
