<svg width="16" height="16" viewBox="0 0 50 50" xmlns="http://www.w3.org/2000/svg" fill="rgba(0, 0, 0, 0.7)"><path d="M30.4167 14C27.1667 14 25.5753 16.2685 25 17.3789C24.4248 16.2685 22.8333 14 19.5833 14C15.4017 14 12 17.4277 12 21.6408C12 22.1998 12.0498 22.7544 12.1387 23.3026C12.1809 23.5626 12.4106 23.75 12.6738 23.75H18.9138L20.7804 20.0158C20.8768 19.8247 21.0276 19.6664 21.2137 19.5607C21.3998 19.4551 21.613 19.4068 21.8265 19.4219C22.04 19.4371 22.2442 19.515 22.4135 19.6459C22.5828 19.7768 22.7097 19.9549 22.7781 20.1577L25.0921 27.1018L26.1602 24.4314C26.2406 24.2302 26.3795 24.0577 26.5589 23.9363C26.7383 23.8148 26.95 23.7499 27.1667 23.75H29.6334C29.8686 23.3402 30.2318 23.0189 30.6672 22.8353C31.1026 22.6518 31.5862 22.6161 32.0438 22.7338C32.5528 22.8678 32.9956 23.1823 33.2898 23.6186C33.584 24.055 33.7096 24.5834 33.643 25.1054C33.5765 25.6275 33.3224 26.1075 32.9281 26.4561C32.5338 26.8046 32.0263 26.998 31.5 27C31.1212 26.9989 30.7493 26.8983 30.4217 26.7081C30.0941 26.518 29.8222 26.245 29.6334 25.9167H27.9001L26.0064 30.6519C25.926 30.8531 25.7872 31.0256 25.6078 31.1471C25.4284 31.2685 25.2167 31.3334 25 31.3333H24.9686C24.7504 31.3335 24.5377 31.265 24.3608 31.1374C24.1838 31.0098 24.0515 30.8297 23.9827 30.6227L21.5496 23.3232L20.5529 25.3176C20.3688 25.6848 19.9939 25.9167 19.5833 25.9167H13.6792C13.588 25.917 13.4984 25.9403 13.4185 25.9843C13.3386 26.0283 13.2711 26.0916 13.222 26.1684C13.173 26.2453 13.144 26.3332 13.1378 26.4242C13.1315 26.5152 13.1482 26.6062 13.1862 26.6891C16.0549 32.9832 23.2743 37.8333 25 37.8333C27.1667 37.8333 38 30.1915 38 21.6408C38 17.4277 34.5983 14 30.4167 14Z"></path></svg>
