<svg width="16" height="16" viewBox="0 0 50 50" xmlns="http://www.w3.org/2000/svg" fill="#2AA8D0"><path d="M23.4034 17C23.091 17 22.7986 17.095 22.5537 17.2499H22.5462L15.0407 20.9939V20.9989C14.5008 21.2539 14.1259 21.8012 14.1259 22.4386C14.1259 23.3233 14.8407 24.0381 15.7255 24.0381C15.9929 24.0381 16.2403 23.9657 16.4628 23.8507L16.4653 23.8582L22.8161 20.8665L24.8706 24.1981L14.6583 30.4165C11.6815 29.5242 10.082 28.0471 10.082 28.0471C9.95449 27.9271 9.78704 27.8646 9.61208 27.8721C9.35215 27.8821 9.12471 28.0496 9.03724 28.2945C8.94976 28.5395 9.01974 28.8144 9.21219 28.9868C9.21219 28.9868 12.9012 32.3559 19.2445 32.3559C22.3937 32.3559 24.6106 31.6861 26.5201 31.0438C28.4271 30.399 30.0017 29.7966 32.0412 29.7966C36.1176 29.7966 40.0116 32.256 40.0116 32.256C40.3115 32.4459 40.7064 32.3609 40.8988 32.0635C41.0888 31.7636 41.0038 31.3687 40.7064 31.1763C40.7064 31.1763 36.6225 28.517 32.0412 28.517C31.5563 28.517 31.0989 28.552 30.654 28.6069C30.724 28.3745 30.7615 28.1296 30.7615 27.8771C30.7615 27.3748 30.6115 26.9074 30.3616 26.515L30.3641 26.5075L24.7331 17.7123C24.4457 17.2824 23.9583 17 23.4034 17ZM34.6005 20.1992C32.8335 20.1992 31.4013 21.6313 31.4013 23.3983C31.4013 25.1653 32.8335 26.5975 34.6005 26.5975C36.3675 26.5975 37.7996 25.1653 37.7996 23.3983C37.7996 21.6313 36.3675 20.1992 34.6005 20.1992Z"></path></svg>
