<svg width="16" height="16" viewBox="0 0 50 50" xmlns="http://www.w3.org/2000/svg" fill="#2AA8D0"><path d="M30.5 21C29.67 21 29 20.32 29 19.5C29 18.67 29.67 18 30.5 18C31.32 18 32 18.67 32 19.5C32 20.32 31.32 21 30.5 21ZM29.5 13C25.36 13 22 16.36 22 20.5C22 21.58 22.22 22.63 22.68 23.61L13.14 33.14H13.13C13.03 33.23 12.98 33.36 12.98 33.49V35.49C12.98 35.7 13.11 35.89 13.32 35.96L16.32 36.96C16.58 37.04 16.86 36.9 16.95 36.64L17.87 33.87L20.63 32.94H20.62C20.76 32.89 20.88 32.77 20.93 32.62L21.86 29.81L26.655 27.41C27.545 27.77 28.485 27.95 29.445 27.95C33.575 27.95 36.945 24.58 36.945 20.45C36.945 16.31 33.575 12.95 29.445 12.95"></path></svg>
