<svg width="16" height="16" viewBox="0 0 50 50" xmlns="http://www.w3.org/2000/svg" fill="rgba(0, 0, 0, 0.7)"><path fill-rule="evenodd" clip-rule="evenodd" d="M22.1464 33.306C19.7147 33.306 16.5249 33.5504 14.3549 33.7098C14.1879 33.7227 14.1879 33.9661 14.3549 33.979C16.5249 34.1374 19.7147 34.3829 22.1464 34.3829C22.6848 34.3829 22.8464 34.1417 22.8464 33.8444C22.8464 33.5472 22.6848 33.306 22.1464 33.306ZM19.6167 31.6906C19.6167 31.3934 19.4552 31.1521 18.9167 31.1521C16.4861 31.1521 13.2952 31.3966 11.1252 31.556C10.9583 31.5689 10.9583 31.8123 11.1252 31.8252C13.2952 31.9835 16.4861 32.2291 18.9178 32.2291C19.4562 32.2291 19.6178 31.9878 19.6178 31.6906H19.6167ZM38.8386 30.0968C38.7253 29.8023 38.5523 29.5344 38.3307 29.3098C38.1091 29.0853 37.8435 28.9088 37.5506 28.7915L33.243 27.0426C33.1375 27.0013 33.0483 26.9268 32.9888 26.8305C32.7814 26.4972 32.5721 26.1652 32.361 25.8343L32.6453 25.7632C32.9199 25.6943 33.1213 25.4337 33.0803 25.1537C33.0692 25.0794 33.0426 25.0082 33.0024 24.9447C32.9622 24.8812 32.9092 24.8268 32.8468 24.785C32.7844 24.7431 32.7139 24.7147 32.6399 24.7016C32.5659 24.6885 32.49 24.691 32.417 24.7089L28.7231 25.6318C28.6477 25.6512 28.6047 25.5435 28.6768 25.5069L31.0202 24.2771C31.0532 24.2597 31.0822 24.2357 31.1054 24.2065C31.1286 24.1773 31.1455 24.1437 31.155 24.1076C31.1645 24.0716 31.1665 24.034 31.1607 23.9971C31.1549 23.9603 31.1415 23.9251 31.1214 23.8937L30.99 23.6859L31.3023 23.6083C31.5748 23.5405 31.774 23.282 31.7342 23.0042C31.724 22.9314 31.6989 22.8614 31.6605 22.7987C31.6221 22.736 31.5712 22.6819 31.511 22.6397C31.4509 22.5975 31.3826 22.5681 31.3106 22.5533C31.2386 22.5386 31.1643 22.5388 31.0924 22.554L27.4017 23.478C27.3242 23.4974 27.2833 23.3897 27.3544 23.352L29.6568 22.1437C29.6898 22.1263 29.7188 22.1023 29.742 22.0731C29.7652 22.044 29.7821 22.0103 29.7916 21.9742C29.8011 21.9382 29.8031 21.9006 29.7973 21.8638C29.7915 21.8269 29.7781 21.7917 29.758 21.7603L29.618 21.5396L29.9584 21.4534C30.219 21.3888 30.415 21.1508 30.3934 20.8826C30.3871 20.8064 30.3647 20.7325 30.3276 20.6656C30.2905 20.5988 30.2396 20.5406 30.1783 20.495C30.1169 20.4493 30.0466 20.4173 29.9719 20.4009C29.8972 20.3846 29.8199 20.3843 29.7451 20.4002L26.0556 21.3242C25.9802 21.3425 25.9371 21.2359 26.0082 21.1982L28.2697 20.0114C28.3052 19.9926 28.336 19.9661 28.36 19.934C28.384 19.9018 28.4006 19.8647 28.4085 19.8253C28.4165 19.786 28.4156 19.7454 28.4059 19.7064C28.3962 19.6674 28.3781 19.6311 28.3527 19.6C27.4254 18.4542 26.0265 18.269 24.5296 19.1316C24.129 19.3631 23.5184 19.334 23.0424 19.0626C22.1119 18.5339 21.6532 17.8371 21.1685 17.0983C20.7442 16.4543 20.3059 15.7867 19.5542 15.2342C19.4241 15.1381 19.2758 15.0693 19.1183 15.0321C18.9608 14.9949 18.7974 14.99 18.638 15.0176C18.4786 15.0453 18.3264 15.105 18.1907 15.1931C18.055 15.2813 17.9385 15.396 17.8484 15.5303L13.6452 21.8368C13.6352 21.8517 13.6283 21.8685 13.6249 21.8861C13.6215 21.9037 13.6217 21.9218 13.6254 21.9394C13.6291 21.957 13.6363 21.9736 13.6466 21.9883C13.6568 22.0031 13.6699 22.0156 13.685 22.0252L29.6127 31.9867C29.869 32.1472 30.1651 32.2323 30.4677 32.2323H38.5371C38.5613 32.2321 38.585 32.2256 38.6058 32.2133C38.6266 32.201 38.6438 32.1834 38.6556 32.1623C38.6985 32.0873 38.7387 32.0108 38.7762 31.9329C38.9122 31.6476 38.9879 31.3372 38.9987 31.0213C39.0094 30.7054 38.9549 30.3907 38.8386 30.0968ZM37.4796 33.5515C36.8345 34.0383 35.9568 34.3861 34.7528 34.3861H30.5959C29.6805 34.3775 28.7673 34.0878 27.9521 33.5451L14.0953 24.8823C13.5181 24.4979 13.1918 23.9486 13.167 23.324C13.1659 23.2994 13.1715 23.2749 13.1833 23.2532C13.195 23.2315 13.2125 23.2134 13.2338 23.2009C13.255 23.1884 13.2793 23.1819 13.304 23.1821C13.3287 23.1824 13.3528 23.1894 13.3738 23.2023L29.043 32.9C29.4716 33.1681 29.9637 33.3092 30.4677 33.3092H37.3956C37.5248 33.3092 37.5819 33.474 37.4796 33.5515Z"></path></svg>
