<svg width="18" height="18" viewBox="0 0 18 18" fill="none" xmlns="http://www.w3.org/2000/svg"><path d="M9.00012 14.259C8.85179 14.259 8.70678 14.215 8.58345 14.1326C8.46011 14.0502 8.36398 13.9331 8.30721 13.796C8.25045 13.659 8.2356 13.5082 8.26453 13.3627C8.29347 13.2172 8.36491 13.0836 8.46979 12.9787C8.57468 12.8738 8.70832 12.8023 8.85381 12.7734C8.99929 12.7445 9.15009 12.7593 9.28714 12.8161C9.42418 12.8729 9.54132 12.969 9.62373 13.0923C9.70614 13.2157 9.75012 13.3607 9.75012 13.509C9.74973 13.7078 9.67058 13.8983 9.53002 14.0389C9.38945 14.1795 9.19891 14.2586 9.00012 14.259ZM8.46162 6.97575C8.60645 6.83677 8.7994 6.75917 9.00012 6.75917C9.20085 6.75917 9.3938 6.83677 9.53862 6.97575C9.60855 7.0457 9.66339 7.12924 9.69976 7.22122C9.73614 7.31319 9.75328 7.41164 9.75012 7.5105L9.64213 10.8952C9.63823 10.9937 9.5961 11.0868 9.52468 11.1547C9.45326 11.2226 9.35818 11.26 9.25962 11.259H8.74062C8.64238 11.2599 8.54762 11.2226 8.47628 11.1551C8.40494 11.0875 8.36259 10.9949 8.35812 10.8967L8.25012 7.5105C8.24697 7.41164 8.26411 7.31319 8.30048 7.22122C8.33686 7.12924 8.3917 7.0457 8.46162 6.97575ZM17.8141 15.0315L10.2466 1.48125C10.1227 1.2595 9.94182 1.07483 9.72271 0.946283C9.5036 0.817737 9.25416 0.749969 9.00012 0.749969C8.74609 0.749969 8.49665 0.817737 8.27754 0.946283C8.05842 1.07483 7.87757 1.2595 7.75362 1.48125L0.186125 15.0315L0.184624 15.0352C0.0600938 15.2638 -0.00276752 15.5208 0.00222941 15.781C0.00722634 16.0412 0.0799092 16.2957 0.213122 16.5192C0.346334 16.7428 0.535483 16.9279 0.761943 17.0561C0.988402 17.1844 1.24436 17.2515 1.50462 17.2507H16.4971C16.7576 17.2511 17.0136 17.1836 17.2401 17.0548C17.4665 16.9261 17.6555 16.7406 17.7884 16.5166C17.9213 16.2926 17.9936 16.0379 17.9981 15.7775C18.0026 15.5171 17.9392 15.26 17.8141 15.0315Z" fill="#F1A121"></path></svg>
