<svg width="16" height="16" viewBox="0 0 50 50" xmlns="http://www.w3.org/2000/svg" fill="rgba(0, 0, 0, 0.7)"><path d="M25 12C23.2476 12 21.8222 13.4254 21.8222 15.1778C21.8222 16.9302 23.2476 18.3555 25 18.3555C26.7524 18.3555 28.1778 16.9302 28.1778 15.1778C28.1778 13.4254 26.7524 12 25 12ZM22.8604 19.5111C20.8509 19.5111 19.0201 20.6687 18.1603 22.4846L16.7249 25.5168L12.8419 27.8471C12.297 28.1735 11.9966 28.7529 12 29.3457C12.0018 29.6456 12.0813 29.9497 12.2472 30.2259C12.5719 30.7667 13.1452 31.066 13.7334 31.0666C14.0373 31.0672 14.3463 30.9876 14.626 30.8195L18.9593 28.2195C18.9703 28.2027 18.9844 28.181 18.9954 28.1642C19.2236 26.5747 20.0513 25.13 21.2445 24.1322V25.589C21.2445 25.7127 21.2027 25.8305 21.1293 25.9298C20.5314 26.7376 20.1524 27.7207 20.0923 28.7566H20.0889V30.8511C20.0889 30.8511 15.6934 33.1804 14.9036 33.9702C14.1138 34.76 14.1138 36.041 14.9036 36.8308C15.2988 37.2249 15.8157 37.4222 16.3334 37.4222C16.4986 37.4222 18.2998 37.4211 20.6802 37.4199C20.3145 36.9357 20.0889 36.3411 20.0889 35.6888C20.0889 34.234 21.1762 33.0022 22.6178 32.8225L28.1157 32.2256C28.4364 32.1932 28.7175 32.4213 28.7522 32.7379C28.7868 33.0551 28.557 33.3397 28.2398 33.3743L22.751 33.9702C21.8959 34.0765 21.2445 34.8158 21.2445 35.6888C21.2445 36.6358 22.0083 37.406 22.9518 37.4199C27.7757 37.4182 33.4922 37.4154 33.6655 37.4165C34.1826 37.4194 34.7012 37.2255 35.0964 36.8297C35.8862 36.0399 35.8862 34.76 35.0964 33.9702C34.3066 33.1804 29.91 30.85 29.91 30.85V28.7555H29.9077C29.8476 27.7196 29.4686 26.7376 28.8706 25.9298C28.7973 25.8305 28.7544 25.7127 28.7544 25.589V24.1322C29.9475 25.13 30.7764 26.5747 31.0046 28.1642C31.0156 28.181 31.0297 28.2016 31.0407 28.2184L35.374 30.8184C35.6542 30.9865 35.9633 31.0666 36.2666 31.0666C36.8554 31.0666 37.4275 30.7667 37.7528 30.2248C37.9187 29.9486 37.9982 29.645 38 29.3446C38.0034 28.7524 37.703 28.1735 37.1581 27.8471L33.2751 25.5168L31.8397 22.4846C30.9793 20.6687 29.1491 19.5111 27.1396 19.5111H22.8604ZM24.0837 27.0222C24.465 27.0222 24.8012 27.2107 25 27.4984C25.1988 27.2107 25.535 27.0222 25.9163 27.0222C26.527 27.0222 27.0222 27.5069 27.0222 28.1055C27.0222 29.2507 25 30.4888 25 30.4888C25 30.4888 22.9778 29.2507 22.9778 28.1055C22.9778 27.5069 23.473 27.0222 24.0837 27.0222Z"></path></svg>
